<?xml version="1.0" encoding="utf-8"?>
<!-- Generator: Adobe Illustrator 24.2.1, SVG Export Plug-In . SVG Version: 6.00 Build 0)  -->
<svg version="1.1" id="Layer_1" xmlns="http://www.w3.org/2000/svg" xmlns:xlink="http://www.w3.org/1999/xlink" x="0px" y="0px"
	 width="1200px" height="609.5px" viewBox="0 0 1200 609.5" style="enable-background:new 0 0 1200 609.5;" xml:space="preserve">
<style type="text/css">
	.st0{fill:#444447;}
</style>
<g>
	<g>
		<path d="M36.9,21.3l0.4-7.9h87.4c24.6,0,43.5,7.9,56.7,23.4c13.2,15.9,20,39.3,20,70.3c0,20.4-5.3,41.6-15.9,63.5
			c-10.6,21.9-20.8,36.3-29.9,42.4l66.6,158.1l17.8,1.5c0,0.4,0,3-0.4,7.9l-39.3,0.8l-68.1-161.9h-48v151.3l25,2.3
			c0,0.4,0,3-0.4,7.9l-71.9,0.4l0.4-7.2l18.5-3.8c1.5-0.4,3-1.9,3.8-4.5V29.6c-0.4-3-1.9-4.9-3.8-5.3L36.9,21.3z M122.8,21.3H84.2
			v190.6h61.3c12.5-20.8,20.8-39,25-54.8s6.4-31.4,6.4-46.5c0-29.5-4.5-51.8-14-66.6C153.8,28.9,140.5,21.3,122.8,21.3z"/>
		<path d="M261.2,381.3l0.4-7.2l18.5-3.8c2.3-0.4,3.8-2.6,4.2-6.8h0.4V31.9h-0.4c-0.4-4.5-1.9-7.2-4.2-7.2l-18.5-2.6l-0.4-7.9
			l72.2-0.8c0,0.4,0,3,0.4,7.9l-24.6,3v346.4l24.6,2.3c0,0.4,0,3-0.4,7.9L261.2,381.3z"/>
		<path d="M421.5,24h-61.6l-5.7,69.2l-6.8-4.2l3.4-65h-0.4l0.8-4.2l0.4-6.4l0.8,0.4v-0.4h163l4.5,75.6l-7.2,4.2L507,24h-62.8v347.2
			l26.1,2.3c0,0.4,0,3-0.4,7.9l-71.9,0.4c0-3,0-5.7,0.4-7.2l18.5-3.8c2.3-0.4,3.8-2.6,4.2-6.8V24H421.5z"/>
		<path d="M615.1,13.4c0,0.4,0,3,0.4,7.9l-24.6,3v198.5c0,60.9,7.2,101.3,21.9,121.4c6.8,9.8,14,16.6,21.2,20
			c7.2,3.8,15.5,5.7,25.3,5.7s18.5-1.9,26.5-5.7c7.9-3.8,15.5-11,23.1-21.2c15.9-21.2,23.8-60.9,23.8-120.3V32.7
			c-0.4-4.5-1.9-7.2-4.2-7.2l-25.7-3.8c-0.4-2.3-0.4-4.5-0.4-7.9l68.1-0.4c0,0.4,0,3,0.4,7.9l-29.9,4.5v197.4
			c0,106.3-27.2,159.6-81.3,159.6c-13.2,0-24.6-1.9-34.8-6.1c-9.8-4.2-19.7-11.3-28.7-22.3c-19.3-21.9-29.1-65.8-29.1-131.2V31.1
			c-1.1-4.2-2.3-6.4-4.2-6.8l-18.5-2.6c-0.4-2.3-0.4-4.5-0.4-7.9L615.1,13.4z"/>
		<path d="M766.8,381.3l0.4-7.2l18.5-3.8c1.5-0.4,3-2.6,4.2-6.8l77.9-350.2h23.8L974,370.7l24.6,2.3c0,0.4,0,3-0.4,7.9l-71.9,0.4
			c0-3,0-5.7,0.4-7.2l18.5-3.8c1.9-0.4,3-2.3,3-6.4l-19.7-85.5H816.7L797.8,370l41.6,3c0,0.4,0,3-0.4,7.9L766.8,381.3z M870.4,23.2
			L819,267.9h107.4L870.4,23.2z"/>
		<path d="M1084.8,13.4c0,0.4,0,3,0.4,7.9l-24.6,3v346h99.1l7.2-84l6.8,2.6l-5.3,91.9h-83.2l-72.2,0.4l0.4-7.2l18.5-3.8
			c2.3-0.4,3.8-2.6,4.2-6.8V31.1c-0.4-4.2-1.9-6.4-4.2-6.8l-18.5-2.6l-0.4-7.9L1084.8,13.4z"/>
	</g>
	<g>
		<path class="st0" d="M26.3,412.3v-4.2h23.8l43.5,134.2l42.7-134.2h23.8c0,0.4,0,1.1,0,1.9c0,0.8,0,1.5,0,2.3l-9.5,1.5
			c-1.1,0-1.9,1.5-2.3,3.4v171.7l13.2,1.1c0,0,0,1.5,0,4.2l-36.3,0.4v-3.8l9.5-1.9c1.1,0,1.9-1.1,2.3-3V418.4L95.9,549.2l-3.8,10.6
			H88L42.2,417.6v170.6l20.8,1.5c0,0,0,1.5,0,4.2H26.3v-3.8l9.5-1.9c1.1,0,1.9-1.5,2.3-3.4V416.9c-0.4-2.3-1.1-3.4-2.3-3.4
			L26.3,412.3z"/>
		<path class="st0" d="M173.8,501.6c0-29.1,4.9-52.6,15.1-69.6c10.2-17.4,23.1-26.1,38.2-26.1c35.5,0,53.3,31.8,53.3,95.7
			c0,29.5-4.9,52.6-15.1,69.2c-10.2,17-23.1,25.3-38.2,25.3C191.6,596.1,173.8,564.7,173.8,501.6z M185.9,500.8
			c0,59.7,13.6,90,41.2,90c11.7,0,21.6-7.9,29.5-23.8c7.9-15.9,11.7-37.8,11.7-66.2c0-59.7-13.6-90-41.2-90
			c-11.7,0-21.6,7.9-29.5,24.2C190.1,451.3,185.9,473.2,185.9,500.8z"/>
		<path class="st0" d="M323.9,413.5h-31l-3,35.2l-3.4-2.3l1.9-32.9l0,0l0.4-2.3v-3l0.4,0.4v-0.4h82.4l2.3,38.2l-3.8,2.3l-3-35.2
			h-31.8v175.1l13.2,1.1c0,0,0,1.5,0,4.2l-36.3,0.4c0-1.5,0-2.6,0-3.8l9.5-1.9c1.1,0,1.9-1.5,2.3-3.4L323.9,413.5L323.9,413.5z"/>
		<path class="st0" d="M490.3,408.2c0,0,0,1.5,0,4.2l-11.3,1.9v174.7l13.2,1.1c0,0,0,1.5,0,4.2l-36.3,0.4c0-1.5,0-2.6,0-3.8l9.5-1.9
			c1.1,0,1.9-1.5,2.3-3.4V505H406v84.3l13.2,1.1c0,0,0,1.5,0,4.2l-36.3,0.4v-3.8l9.5-1.9c1.1,0,1.9-1.1,2.3-3V418
			c-0.4-2.3-1.1-3.4-2.3-3.4l-9.5-1.1v-4.2l36.3-0.4c0,0,0,1.5,0,4.2L406,415v85.1h61.6v-81.7c-0.4-2.3-1.1-3.4-2.3-3.8l-9.5-1.1
			c0-1.1,0-2.3,0-4.2L490.3,408.2z"/>
		<path class="st0" d="M504.3,412.3v-4.2h77.9v0.8l2.3,37.4l-3.8,2.3l-3-35.2h-49.2v85.5H572c0.8,0,1.1,0,1.5-0.8
			c0.4-0.8,0.8-1.5,0.8-2.6l0.8-18.2l3-0.4v45.4c0,0-1.1,0-2.6,0.4l-0.8-18.2h-45.8v84H583l3.4-42.4l3.4,1.5l-2.6,46.5h-46.5
			l-36.3,0.4v-3.8l9.5-1.9c1.1,0,1.9-1.5,2.3-3.4V417.6c-0.4-2.3-1.1-3.4-2.3-3.4L504.3,412.3z"/>
		<path class="st0" d="M600.8,412.3v-4.2h43.9c12.5,0,21.9,4.2,28.7,12.1c6.8,7.9,10.2,19.7,10.2,35.5c0,10.2-2.6,20.8-7.9,32.1
			c-5.3,11-10.6,18.2-15.1,21.6l33.7,79.8l8.7,0.8c0,0,0,1.5,0,4.2l-19.7,0.4l-34.4-81.7h-24.2v76.4l12.9,1.1c0,0,0,1.5,0,4.2
			l-36.3,0.4v-3.8l9.5-1.9c0.8,0,1.5-1.1,1.9-2.3V417.2c-0.4-1.5-1.1-2.6-1.9-2.6L600.8,412.3z M643.9,412.3h-19.3v96.4h31
			c6.4-10.6,10.6-19.7,12.9-27.6c2.3-7.9,3.4-15.9,3.4-23.4c0-14.7-2.3-26.1-7.2-33.7C659.7,416.1,652.9,412.3,643.9,412.3z"/>
		<path class="st0" d="M819.7,408.2c0,0,0,1.5,0,4.2l-11.3,1.9v174.7l13.2,1.1c0,0,0,1.5,0,4.2l-36.3,0.4c0-1.5,0-2.6,0-3.8l9.5-1.9
			c1.1,0,1.9-1.5,2.3-3.4V505h-61.6v84.3l13.2,1.1c0,0,0,1.5,0,4.2l-36.3,0.4v-3.8l9.5-1.9c1.1,0,1.9-1.1,2.3-3V418
			c-0.4-2.3-1.1-3.4-2.3-3.4l-9.5-1.1v-4.2l36.3-0.4c0,0,0,1.5,0,4.2l-13.2,1.9v85.1H797v-81.7c-0.4-2.3-1.1-3.4-2.3-3.8l-9.5-1.1
			c0-1.1,0-2.3,0-4.2L819.7,408.2z"/>
		<path class="st0" d="M834.5,501.6c0-29.1,4.9-52.6,15.5-69.6c10.2-17.4,23.1-26.1,38.2-26.1c35.5,0,53.3,31.8,53.3,95.7
			c0,29.5-4.9,52.6-15.1,69.2c-10.2,17-23.1,25.3-38.2,25.3C852.2,596.1,834.5,564.7,834.5,501.6z M846.6,500.8
			c0,59.7,13.6,90,41.2,90c11.7,0,21.6-7.9,29.5-23.8s11.7-37.8,11.7-66.2c0-59.7-13.6-90-41.2-90c-11.7,0-21.6,7.9-29.5,24.2
			C850.7,451.3,846.6,473.2,846.6,500.8z"/>
		<path class="st0" d="M955.8,501.6c0-29.1,4.9-52.6,15.5-69.6c10.2-17.4,23.1-26.1,38.2-26.1c35.5,0,53.3,31.8,53.3,95.7
			c0,29.5-4.9,52.6-15.1,69.2c-10.2,17-23.1,25.3-38.2,25.3C973.6,596.1,955.8,564.7,955.8,501.6z M968.3,500.8
			c0,59.7,13.6,90,41.2,90c11.7,0,21.6-7.9,29.5-23.8c7.9-15.9,11.7-37.8,11.7-66.2c0-59.7-13.6-90-41.2-90
			c-11.7,0-21.6,7.9-29.5,24.2C972.1,451.3,968.3,473.2,968.3,500.8z"/>
		<path class="st0" d="M1074.6,412.3v-4.2h44.6c16.3,0,29.5,6.8,39.3,20.8c9.8,14,14.7,36.3,14.7,67.7c0,31-3.4,54.1-10.2,69.6
			c-6.1,13.6-15.5,21.9-28.4,25.3c-5.7,1.5-12.5,2.3-20,2.3h-3.4l-36.3,0.4v-3.8l9.5-1.9c1.1,0,1.9-1.5,2.3-3.4V417.6
			c-0.4-2.3-1.1-3.4-2.3-3.8L1074.6,412.3z M1118.1,412.3h-19.3v177.7h14.7c5.7,0,10.6-0.4,14.7-1.5s8.3-3.4,12.9-6.8
			c4.5-3.8,7.9-8.7,10.6-15.1c6.1-15.1,9.1-37.8,9.1-68.4c0-31.8-4.2-54.5-12.9-67.7C1140,418.4,1130.2,412.3,1118.1,412.3z"/>
	</g>
</g>
</svg>
