<?xml version="1.0" encoding="utf-8"?>
<!-- Generator: Adobe Illustrator 24.2.1, SVG Export Plug-In . SVG Version: 6.00 Build 0)  -->
<svg version="1.1" id="Layer_1" xmlns="http://www.w3.org/2000/svg" xmlns:xlink="http://www.w3.org/1999/xlink" x="0px" y="0px"
	 width="1504.1px" height="169.5px" viewBox="0 0 1504.1 169.5" style="enable-background:new 0 0 1504.1 169.5;"
	 xml:space="preserve">
<style type="text/css">
	.st0{fill:#828282;}
</style>
<g>
	<g>
		<path d="M48.7,96.4H30.9v61.5l10.7,1v1.3c0,0.2,0,1.3-0.2,3.4v1.5l-33.9,0.3l0.3-6.1l9.2-1.8c0,0,0.2-0.2,0.3-0.6V13.7
			C17.2,13,17,12.9,17,12.9l-9.5-1.6L7.8,5h38.8c11,0,19.5,3.6,25.7,10.7c6,6.9,9,17.4,9,31.2c0,8.9-2.4,18.3-6.9,27.8
			C70,83.5,66,89.4,62.1,92.5l27.5,65.4l8.1,0.6v1.6c0,0.2,0,1.3-0.2,3.4v1.5l-19.4,0.3L48.7,96.4z M54.7,89.8
			c5-8.4,8.4-15.8,10-22.3c1.8-6.6,2.7-13.2,2.7-19.4c0-12.1-1.9-21.5-5.8-27.6c-3.6-6-8.7-8.9-15.8-8.9H30.9v78.2H54.7z"/>
		<path d="M9.3,10l0.2-3.4h37.3c10.5,0,18.6,3.4,24.4,10c5.7,6.8,8.6,16.8,8.6,30c0,8.7-2.3,17.8-6.8,27.1
			c-4.5,9.4-8.9,15.5-12.8,18.1l28.1,67.7l7.6,0.6c0,0.2,0,1.3-0.2,3.4l-16.6,0.2L50,94.6H29.5v64.6l10.7,1c0,0.2,0,1.3-0.2,3.4
			l-30.7,0.2l0.2-3.1l7.9-1.6c0.6-0.2,1.3-0.8,1.6-1.9V13.5c-0.3-1.3-0.8-2.1-1.6-2.3L9.3,10z M45.8,10H29.5v81.4h26.2
			c5.3-8.9,8.9-16.6,10.7-23.4c1.8-6.8,2.7-13.4,2.7-19.9c0-12.6-1.9-22.1-6-28.4C59.2,13.2,53.4,10,45.8,10z"/>
		<path d="M103.6,159.2l9.2-1.8c0.2,0,0.5-0.3,0.5-1.5l0.2-1.3V15.3l-0.2-0.6c-0.2-1.5-0.5-1.8-0.5-1.8l-9.2-1.3l-0.3-6.5l34.1-0.3
			v1.6c0,0.2,0,1.3,0.2,3.2v1.5L127,12.4v145l10.5,1v1.8c0,0.2,0,1.3-0.2,3.4v1.5l-34.1,0.3L103.6,159.2z"/>
		<path d="M105.1,163.7l0.2-3.1l7.9-1.6c1-0.2,1.6-1.1,1.8-2.9h0.2V14.5h-0.2c-0.2-1.9-0.8-3.1-1.8-3.1l-7.9-1.1l-0.2-3.6l30.9-0.2
			c0,0.2,0,1.3,0.2,3.4l-10.5,1.3v148l10.5,1c0,0.2,0,1.3-0.2,3.4L105.1,163.7z"/>
		<path d="M161.9,163.7c0-1.5,0-2.6,0.2-3.4l0.2-1.1l9-1.8c0.2,0,0.3-0.3,0.5-1.5V12.7h-23.1l-2.6,30.7l-6-3.7l1.5-27h-0.2l0.2-1.9
			l0.3-1.8l0.3-5.5l1.9,1.5h70.9l2.1,34.7l-6.1,3.6l-2.6-30.7h-23.7v145l11.1,1v1.6c0,0.2,0,1.3-0.2,3.4v1.5l-33.8,0.3
			C161.9,165.3,161.9,163.7,161.9,163.7z"/>
		<path d="M173.5,11.1h-26.3l-2.4,29.6l-2.9-1.8l1.5-27.8h-0.2l0.3-1.8l0.2-2.7l0.3,0.2V6.6h69.6l1.9,32.3l-3.1,1.8L210,11.1h-26.8
			v148.3l11.1,1c0,0.2,0,1.3-0.2,3.4l-30.7,0.2c0-1.3,0-2.4,0.2-3.1l7.9-1.6c1-0.2,1.6-1.1,1.8-2.9V11.1H173.5z"/>
		<path d="M275,166c-5.8,0-11-1-15.3-2.7c-4.5-1.8-8.9-5.2-12.9-10c-8.6-9.9-12.8-28.4-12.8-57.2V14.3c-0.3-1-0.5-1.5-0.6-1.5
			l-9-1.3l-0.2-1.3c-0.2-1-0.2-2.1-0.2-3.6V5.1l33.9-0.3v1.6c0,0.2,0,1.3,0.2,3.2v1.5l-10.5,1.3v83.3c0,25.5,3.1,42.6,9,50.9
			c2.7,4,5.7,6.8,8.4,8.1c2.7,1.5,6.1,2.1,10,2.1s7.4-0.8,10.5-2.3c3.1-1.5,6.3-4.4,9.2-8.4c6.5-8.7,9.9-25.7,9.9-50.4V15
			c-0.2-1.3-0.5-1.6-0.5-1.6l-12.1-1.8l-0.2-1.3c-0.2-1-0.2-2.1-0.2-3.6V5.1l32.3-0.3v1.6c0,0.2,0,1.3,0.2,3.2v1.5l-12.8,2.1v82.9
			C311.5,142.6,299.2,166,275,166z"/>
		<path d="M256.2,6.6c0,0.2,0,1.3,0.2,3.4l-10.5,1.3v84.8c0,26,3.1,43.3,9.4,51.8c2.9,4.2,6,7.1,9,8.6c3.1,1.6,6.6,2.4,10.8,2.4
			s7.9-0.8,11.3-2.4c3.4-1.6,6.6-4.7,9.9-9c6.8-9,10.2-26,10.2-51.4V14.8c-0.2-1.9-0.8-3.1-1.8-3.1l-11-1.6c-0.2-1-0.2-1.9-0.2-3.4
			l29.1-0.2c0,0.2,0,1.3,0.2,3.4L310,11.9v84.3c0,45.4-11.6,68.2-34.7,68.2c-5.7,0-10.5-0.8-14.9-2.6c-4.2-1.8-8.4-4.8-12.3-9.5
			c-8.2-9.4-12.4-28.1-12.4-56V14.2c-0.5-1.8-1-2.7-1.8-2.9l-7.9-1.1c-0.5-0.8-0.5-1.9-0.5-3.4L256.2,6.6z"/>
		<path d="M319.6,159.2l9-1.8c0.2-0.2,0.5-0.6,0.8-1.8L362.8,5h12.8l35.2,152.8l10.8,1v1.5c0,0.2,0,1.3-0.2,3.4v1.5l-33.8,0.3v-1.6
			c0-1.5,0-2.6,0.2-3.4l0.2-1.1l8.9-1.8c0-0.2,0.2-0.5,0.2-1l-8.1-35h-45.2l-7.4,35.9l17.4,1.3v1.6c0,0.2,0,1.3-0.2,3.4v1.5
			l-34.1,0.3V159.2z M387.1,113.7l-21.8-95.3l-20,95.3H387.1z"/>
		<path d="M321,163.7l0.2-3.1l7.9-1.6c0.6-0.2,1.3-1.1,1.8-2.9L364,6.6h10.2l35.2,152.6l10.5,1c0,0.2,0,1.3-0.2,3.4l-30.7,0.2
			c0-1.3,0-2.4,0.2-3.1l7.9-1.6c0.8-0.2,1.3-1,1.3-2.7l-8.2-36.5h-47.8l-8.1,39.1l17.8,1.3c0,0.2,0,1.3-0.2,3.4L321,163.7z
			 M365.1,10.8l-22,104.5H389L365.1,10.8z"/>
		<path d="M424.5,159.2l9.2-1.8c0.2,0,0.3-0.3,0.5-1.5V14.3c0-1.1-0.3-1.5-0.3-1.5l-9.4-1.3l-0.2-6.5l34.1-0.3v1.6
			c0,0.2,0,1.3,0.2,3.2v1.5L448,12.4v144.7h39.2l3.1-36.5l6,2.3l-2.4,42h-37.1l-32.5,0.2L424.5,159.2z"/>
		<path d="M456.8,6.6c0,0.2,0,1.3,0.2,3.4l-10.5,1.3V159h42.3l3.1-35.9l2.9,1.1l-2.3,39.2H457l-30.9,0.2l0.2-3.1l7.9-1.6
			c1-0.2,1.6-1.1,1.8-2.9v-142c-0.2-1.8-0.8-2.7-1.8-2.9l-7.9-1.1L426,6.7L456.8,6.6z"/>
	</g>
	<g>
		<path class="st0" d="M526.6,9.5l0.2-3.4H547l36.7,113.7l36-113.7h20.2c0,0.3,0,0.8,0.2,1.6c0.2,0.8,0.2,1.3,0,1.8l-8.1,1.3
			c-1,0.2-1.6,1.1-1.8,2.9v145l11.3,1c0,0.2,0,1.3-0.2,3.4l-30.9,0.2l0.2-3.1l7.9-1.6c1-0.2,1.6-1,1.8-2.7V14.2l-34.9,110.5l-3.1,9
			h-3.6L540,14v144.4l17.4,1.3c0,0.2,0,1.3-0.2,3.4l-30.9,0.2l0.2-3.1l7.9-1.6c1-0.2,1.6-1.1,1.8-2.9v-142c-0.2-1.8-0.8-2.7-1.8-2.9
			L526.6,9.5z"/>
		<path class="st0" d="M651.3,85.1c0-24.7,4.4-44.3,12.9-59c8.6-14.7,19.4-22,32.3-22c30.2,0,45.2,27,45.2,80.9
			c0,24.9-4.4,44.4-12.9,58.6c-8.6,14.2-19.4,21.5-32.3,21.5C666.3,165,651.3,138.4,651.3,85.1z M661.7,84.6
			c0,50.7,11.6,76.1,34.7,76.1c10,0,18.3-6.8,24.9-20.2c6.6-13.4,9.9-32.1,9.9-55.9c0-50.7-11.6-76.1-34.7-76.1
			c-9.9,0-18.3,6.8-24.9,20.4C665,42.6,661.7,61.2,661.7,84.6z"/>
		<path class="st0" d="M778.1,10.6h-26.3l-2.4,29.6l-2.9-1.8l1.5-27.8h-0.2l0.3-1.8l0.2-2.7l0.3,0.2V6.1h69.6l1.9,32.3l-3.1,1.8
			l-2.4-29.6h-26.8v148.3l11.1,1c0,0.2,0,1.3-0.2,3.4l-30.7,0.2c0-1.3,0-2.4,0.2-3.1l7.9-1.6c1-0.2,1.6-1.1,1.8-2.9V10.6H778.1z"/>
		<path class="st0" d="M919,6.1c0,0.2,0,1.3,0.2,3.4l-9.7,1.6v147.8l11.1,1c0,0.2,0,1.3-0.2,3.4l-30.7,0.2c0-1.3,0-2.4,0.2-3.1
			l7.9-1.6c1-0.2,1.6-1.1,1.8-2.9V87.5h-52.2v71.2l11.3,1c0,0.2,0,1.3-0.2,3.4l-30.9,0.2l0.3-3.1l7.9-1.6c1-0.2,1.6-1,1.8-2.7V13.7
			c-0.2-1.8-0.8-2.7-1.8-2.9L828,9.6l-0.2-3.4l30.9-0.2c0,0.2,0,1.3,0.2,3.4l-11.3,1.6v72h52.3V14c-0.2-1.9-0.8-3.1-1.8-3.1
			l-7.9-1.1c-0.2-1-0.2-1.9-0.2-3.4L919,6.1z"/>
		<path class="st0" d="M930.9,9.5l0.2-3.4h65.6l-0.2,0.6l1.9,31.7l-3.1,1.8l-2.4-29.6h-41.7V83h36.7c0.5,0.2,1,0,1.5-0.5
			c0.5-0.5,0.6-1.3,0.6-2.1l0.6-15.5l2.4-0.5v38.3c-0.2,0-0.8,0-2.3,0.2l-0.6-15.5h-38.8v71.1h45.9l2.9-35.9l2.9,1.1l-2.3,39.2
			h-38.9l-30.9,0.2l0.2-3.1l7.9-1.6c1-0.2,1.6-1.1,1.8-2.9V13.7c-0.2-1.8-0.8-2.7-1.8-2.9L930.9,9.5z"/>
		<path class="st0" d="M1012.5,9.5l0.2-3.4h37.3c10.5,0,18.6,3.4,24.4,10c5.7,6.8,8.6,16.8,8.6,30c0,8.7-2.3,17.8-6.8,27.1
			c-4.5,9.4-8.9,15.5-12.8,18.1l28.4,67.5l7.6,0.6c0,0.2,0,1.3-0.2,3.4l-16.6,0.2L1053.5,94h-20.4v64.6l10.7,1c0,0.2,0,1.3-0.2,3.4
			l-30.9,0.2l0.2-3.1l7.9-1.6c0.6-0.2,1.3-0.8,1.6-1.9V13c-0.3-1.3-0.8-2.1-1.6-2.3L1012.5,9.5z M1049,9.5h-16.5v81.4h26.2
			c5.3-8.9,8.9-16.6,10.7-23.4c1.8-6.8,2.7-13.4,2.7-19.9c0-12.6-1.9-22.1-6-28.4C1062.4,12.7,1056.6,9.5,1049,9.5z"/>
		<path class="st0" d="M1197.7,6.1c0,0.2,0,1.3,0.2,3.4l-9.7,1.6v147.8l11.1,1c0,0.2,0,1.3-0.2,3.4l-30.7,0.2c0-1.3,0-2.4,0.2-3.1
			l7.9-1.6c1-0.2,1.6-1.1,1.8-2.9V87.5H1126v71.2l11.3,1c0,0.2,0,1.3-0.2,3.4l-30.9,0.2l0.2-3.1l7.9-1.6c1-0.2,1.6-1,1.8-2.7V13.7
			c-0.2-1.8-0.8-2.7-1.8-2.9l-7.9-1.1l-0.2-3.4l30.9-0.2c0,0.2,0,1.3,0.2,3.4l-11.3,1.6v72h52.5V14c-0.2-1.9-0.8-3.1-1.8-3.1
			l-7.9-1.3c-0.2-1-0.2-1.9-0.2-3.4L1197.7,6.1z"/>
		<path class="st0" d="M1210,85.1c0-24.7,4.4-44.3,12.9-59c8.6-14.7,19.4-22,32.3-22c30.2,0,45.2,27,45.2,80.9
			c0,24.9-4.4,44.4-12.9,58.6c-8.6,14.2-19.4,21.5-32.3,21.5C1225,165,1210,138.4,1210,85.1z M1220.5,84.6
			c0,50.7,11.6,76.1,34.7,76.1c10,0,18.3-6.8,24.9-20.2s9.9-32.1,9.9-55.9c0-50.7-11.6-76.1-34.7-76.1c-9.9,0-18.3,6.8-24.9,20.4
			C1223.7,42.6,1220.5,61.2,1220.5,84.6z"/>
		<path class="st0" d="M1312.7,85.1c0-24.7,4.4-44.3,12.9-59c8.6-14.7,19.4-22,32.3-22c30.2,0,45.2,27,45.2,80.9
			c0,24.9-4.4,44.4-12.9,58.6c-8.6,14.2-19.4,21.5-32.3,21.5C1327.8,165,1312.7,138.4,1312.7,85.1z M1323.1,84.6
			c0,50.7,11.6,76.1,34.7,76.1c10,0,18.3-6.8,24.9-20.2s9.9-32.1,9.9-55.9c0-50.7-11.6-76.1-34.7-76.1c-9.9,0-18.3,6.8-24.9,20.4
			C1326.5,42.6,1323.1,61.2,1323.1,84.6z"/>
		<path class="st0" d="M1413.4,9.5l0.2-3.4h37.5c13.7,0,24.9,5.8,33.1,17.6c8.4,11.8,12.4,30.9,12.4,57.3c0,26.2-2.9,45.7-8.7,58.8
			c-5.2,11.3-13.1,18.6-23.9,21.5c-4.8,1.1-10.5,1.8-16.8,1.8h-2.9l-30.9,0.2l0.2-3.1l7.9-1.6c1-0.2,1.6-1.1,1.8-2.9V14
			c-0.2-1.9-0.8-3.1-1.8-3.1L1413.4,9.5z M1450,9.5h-16.3v150.2h12.6c4.8,0,9-0.5,12.4-1.3c3.4-0.8,6.9-2.7,10.7-5.8
			c3.7-3.1,6.6-7.3,8.9-12.6c5.2-12.8,7.8-32,7.8-57.8c0-27-3.6-46-10.8-57.2C1468.6,14.6,1460.2,9.5,1450,9.5z"/>
	</g>
</g>
</svg>
